HIERARCHY
ROOT Hips
{
	OFFSET 0.000000 0.000000 0.000000
	CHANNELS 6 Xposition Yposition Zposition Zrotation Yrotation Xrotation 
	JOINT LHipJoint
	{
		OFFSET 0.000000 0.000000 0.000000
		CHANNELS 3 Zrotation Yrotation Xrotation
		JOINT LeftUpLeg
		{
			OFFSET 1.363060 -1.794630 0.839290
			CHANNELS 3 Zrotation Yrotation Xrotation
			JOINT LeftLeg
			{
				OFFSET 2.448110 -6.726130 0.000000
				CHANNELS 3 Zrotation Yrotation Xrotation
				JOINT LeftFoot
				{
					OFFSET 2.562200 -7.039590 0.000000
					CHANNELS 3 Zrotation Yrotation Xrotation
					JOINT LeftToeBase
					{
						OFFSET 0.157640 -0.433110 2.322550
						CHANNELS 3 Zrotation Yrotation Xrotation
						End Site
						{
							OFFSET 0.000000 0.000000 0.000000
						}
					}
				}
			}
		}
	}
	JOINT RHipJoint
	{
		OFFSET 0.000000 0.000000 0.000000
		CHANNELS 3 Zrotation Yrotation Xrotation
		JOINT RightUpLeg
		{
			OFFSET -1.305520 -1.794630 0.839290
			CHANNELS 3 Zrotation Yrotation Xrotation
			JOINT RightLeg
			{
				OFFSET -2.542530 -6.985550 0.000000
				CHANNELS 3 Zrotation Yrotation Xrotation
				JOINT RightFoot
				{
					OFFSET -2.568260 -7.056230 0.000000
					CHANNELS 3 Zrotation Yrotation Xrotation
					JOINT RightToeBase
					{
						OFFSET -0.164730 -0.452590 2.363150
						CHANNELS 3 Zrotation Yrotation Xrotation
						End Site
						{
							OFFSET 0.000000 0.000000 0.000000
						}
					}
				}
			}
		}
	}
}
MOTION
Frames: 14
Frame Time: 0.008333
-20.472379 15.937412 -2.766085 178.683289 83.343839 -177.338198 -10.854002 6.053663 1.000303 2.604149 11.402867 22.424799 -1.053862 0.578163 5.641587 0.767246 5.451233 1.511541 0.842000 -0.000000 -76.390300 9.249313 1.002841 1.896800 10.489768 -6.083647 -51.136313 1.222609 -3.265774 51.124698 -3.390333 -10.365395 -23.246362 2.753700 0.000000 -20.084600
-20.246322 15.946564 -2.729401 178.625929 83.112865 -177.502664 -10.846951 6.196784 1.067906 3.086417 11.162709 22.556691 -0.937097 0.755069 6.379859 0.754167 5.366342 3.854005 1.030000 0.000000 -79.433399 9.289762 0.937378 1.862304 10.446114 -6.011807 -49.949688 1.172336 -3.219084 51.444287 -3.606379 -11.209111 -24.250518 3.171900 0.000000 -15.855900
-20.016375 15.957202 -2.690187 178.487269 82.859341 -177.771877 -10.836794 6.333934 1.143144 3.561300 10.872086 22.616679 -0.806185 0.936547 7.257661 0.759620 5.266687 6.347158 1.201400 0.000000 -82.307200 9.332232 0.861715 1.806591 10.439433 -6.035635 -48.697816 1.133947 -3.172153 51.710487 -3.824411 -12.054909 -25.304780 3.634201 -0.000000 -11.384100
-19.783818 15.969042 -2.648655 178.287582 82.587847 -178.126164 -10.825753 6.461585 1.224158 4.021436 10.529120 22.590528 -0.658653 1.120571 8.300141 0.789558 5.167835 9.004141 1.356000 -0.000000 -84.873900 9.377039 0.776928 1.727206 10.466347 -6.162529 -47.410590 1.108240 -3.128530 51.932776 -4.024977 -12.832486 -26.344995 4.108700 0.000000 -6.966300
-19.549503 15.981761 -2.605059 178.050560 82.307900 -178.541066 -10.817351 6.575488 1.308504 4.461718 10.142417 22.458039 -0.493670 1.303179 9.537625 0.849136 5.077825 11.823980 1.492501 -0.000000 -86.960500 9.424289 0.684196 1.623573 10.521858 -6.391907 -46.116299 1.095063 -3.090965 52.122359 -4.189922 -13.476995 -27.305132 4.555500 -0.000000 -2.951801
-19.314654 15.995049 -2.559712 177.806336 82.033610 -178.984257 -10.816283 6.670662 1.393459 4.880624 9.730730 22.193733 -0.313106 1.478170 11.005379 0.941722 4.996340 14.777732 1.607500 -0.000000 -88.350800 9.473392 0.584887 1.497108 10.601963 -6.714436 -44.839035 1.094101 -3.061026 52.291655 -4.305891 -13.936529 -28.139873 -175.062300 0.000000 -0.442200
-19.080432 16.008552 -2.512991 177.571240 81.780894 -179.435308 -10.825440 6.740681 1.477196 5.264269 9.300763 21.784686 -0.121842 1.637530 12.721295 1.069696 4.942684 17.807766 1.706600 -0.000000 -88.790700 9.523698 0.481044 1.349967 10.700294 -7.114046 -43.596737 1.104873 -3.039578 52.453022 -4.365571 -14.177179 -28.829397 -174.771900 -0.000000 -3.160300
-18.847826 16.021982 -2.465304 177.350067 81.566103 -179.885518 -10.845886 6.779008 1.557389 5.592622 8.857008 21.226328 0.071053 1.773573 14.692920 1.231324 4.947878 20.819445 1.806100 -0.000000 -88.034600 9.574837 0.374759 1.185298 10.808339 -7.569916 -42.397851 1.126075 -3.026513 52.614615 -4.367809 -14.188516 -29.369574 -174.588000 0.000000 -5.226900
-18.617883 16.034993 -2.417026 177.140968 81.403151 179.666920 -10.877614 6.781027 1.629409 5.854258 8.417837 20.510256 0.252749 1.881872 16.932492 1.418067 5.040257 23.670610 1.926600 0.000000 -85.866400 9.626641 0.267663 1.008284 10.917463 -8.056661 -41.243521 1.155265 -3.020806 52.780177 -4.317509 -13.985768 -29.767543 -174.511500 -0.000000 -6.713400
-18.390971 16.047289 -2.368434 176.929215 81.301928 179.209853 -10.918427 6.745274 1.686068 6.041787 8.008072 19.631732 0.410143 1.963982 19.443455 1.616381 5.256959 26.191454 2.097101 -0.000000 -82.188900 9.679295 0.160561 0.824937 11.018166 -8.547396 -40.126125 1.189305 -3.020922 52.948039 -4.224322 -13.605775 -30.039577 -174.530500 -0.000001 -7.713800
-18.167949 16.058589 -2.319792 176.700841 81.266129 178.730440 -10.964919 6.674373 1.718209 6.156456 7.659632 18.586231 0.534576 2.028392 22.220920 1.811035 5.640453 28.208922 2.348300 0.000000 -77.100900 9.732288 0.053604 0.642302 11.102034 -9.015593 -39.031643 1.224979 -3.025174 53.111613 -4.101284 -13.101900 -30.208720 -174.623000 -0.000000 -8.331500
-17.949144 16.068715 -2.271287 176.436182 81.294685 178.210028 -11.013504 6.573755 1.716909 6.201124 7.400572 17.372716 0.625082 2.088217 25.243856 1.989771 6.237686 29.582059 2.708899 0.000000 -70.965999 9.785228 -0.053997 0.466562 11.163272 -9.437503 -37.942333 1.259316 -3.031739 53.260727 -3.963441 -12.536856 -30.304450 -174.760499 -0.000000 -8.673500
-17.734539 16.077468 -2.223034 176.122756 81.382817 177.638809 -11.062121 6.450419 1.675975 6.182985 7.254494 15.987604 0.688406 2.157068 28.485196 2.145515 7.077900 30.218158 3.187300 0.000000 -64.281600 9.836978 -0.163045 0.304152 11.200192 -9.790950 -36.842567 1.289995 -3.038722 53.384172 -3.826463 -11.975809 -30.361508 -174.912000 0.000000 -8.849000
-17.524025 16.084868 -2.175065 175.734525 81.521898 176.992924 -11.109217 6.309846 1.593823 6.097872 7.222793 14.438733 0.736380 2.244960 31.899877 2.278280 8.181975 30.090978 3.775800 0.000000 -57.651600 9.886734 -0.273726 0.158951 11.211221 -10.061929 -35.717574 1.315825 -3.044651 53.470630 -3.704121 -11.475960 -30.416321 -175.048700 -0.000000 -8.960201
